<svg xmlns="http://www.w3.org/2000/svg" width="28" height="28" viewBox="0 0 28 28">
  <g id="acquisition" transform="translate(11.378 -102.047)">
    <path id="acquisition-2" data-name="acquisition" d="M13.694,114.752H4.5v-4.3H14.741v4.3Zm-.941,13.553H4.5V116.494h8.251v11.811ZM-7.509,116.494H.741v11.811H-7.509V116.494ZM-9.5,110.45H.741v4.3H-9.5v-4.3Zm25.844-1.487a.986.986,0,0,0-.665-.255H10.128v-6.225a.436.436,0,0,0-.265-.392.5.5,0,0,0-.5.051l-5.086,3.736H.963l-5.087-3.736a.5.5,0,0,0-.5-.051.436.436,0,0,0-.265.392v6.225h-5.552a.983.983,0,0,0-.665.255.844.844,0,0,0-.276.616v6.044a.843.843,0,0,0,.276.616.981.981,0,0,0,.665.255H-9.39v12.682a.847.847,0,0,0,.275.616.987.987,0,0,0,.665.255H13.694a.987.987,0,0,0,.665-.255.846.846,0,0,0,.275-.616V116.494h1.047a.984.984,0,0,0,.665-.255.844.844,0,0,0,.276-.616v-6.044a.844.844,0,0,0-.276-.616Z" transform="translate(0 0)" fill="#d55b5b"/>
  </g>
</svg>
