<svg xmlns="http://www.w3.org/2000/svg" width="37.271" height="32" viewBox="0 0 37.271 32">
  <path id="add_quest" d="M1120.624,2152.792a.7.7,0,0,1,.7-.7h11.328a.7.7,0,1,1,0,1.391H1121.32A.7.7,0,0,1,1120.624,2152.792Zm.7-3.577h11.328a.7.7,0,1,0,0-1.391H1121.32a.7.7,0,1,0,0,1.391Zm11.331,7.006H1121.32a.7.7,0,1,0,0,1.391h11.331a.7.7,0,0,0,0-1.391Zm0-12.67h-11.33a.7.7,0,1,0,0,1.391h11.33a.7.7,0,1,0,0-1.391Zm2.982,25a4.047,4.047,0,0,1-1.1.078h-20.911v-1.353a2.516,2.516,0,0,0,2.707-2.256v-22.482c-1.534.731-2.223,2.215-2.223,4.681,0-3.719-1.522-5.243-5.244-5.243,3.72,0,5.244-1.522,5.244-5.244h0c0,2.474.7,3.961,2.248,4.689a3.967,3.967,0,0,1,4.1-3.464v-.016h20.857c.034,0,.118.01.152.009s.067-.009.1-.009v.014a3.655,3.655,0,0,1,1.876.685,4.37,4.37,0,0,1,1.577,3.786l0,.677h-6.159v8.1h-1.625v-9.65h0a3.244,3.244,0,0,1,.974-2.255h-17.568a2.513,2.513,0,0,0-2.691,2.255v.333a10.384,10.384,0,0,0,1.4.093,10.108,10.108,0,0,0-1.4.094v22.95a3.23,3.23,0,0,1-.975,2.256h17.555a2.49,2.49,0,0,0,1.1-.166Zm3.233-26.8,4.5,0a2.773,2.773,0,0,0-.985-2.093,1.921,1.921,0,0,0-.914-.352,2.5,2.5,0,0,0-2.6,2.247Zm-17.542,20.129h7.318a1.093,1.093,0,0,1-.036-.175v-1.216h-7.283a.7.7,0,1,0,0,1.391Zm17.786-9.363h-2.162v7.027h-7.027v2.162h7.027v7.027h2.162v-7.027h7.027v-2.162h-7.027Z" transform="translate(-1108.861 -2136.737)" fill="#fff"/>
</svg>
