<svg xmlns="http://www.w3.org/2000/svg" width="36.627" height="32" viewBox="0 0 36.627 32">
  <g id="add_reward" transform="translate(-1113.478 -2187.169)">
    <path id="パス_1798" data-name="パス 1798" d="M1116.281,2198.443l-1.949-.615,1.949-.616.616-1.949.616,1.949,1.949.616-1.949.615-.616,1.949Zm29.717,1.646.3,2.566,1.245-2.266,2.566-.3-2.266-1.245-.3-2.566-1.245,2.266-2.566.3Zm-13.457,9.883v-1.4a1.39,1.39,0,1,0-1.3,0v1.4Zm2.377,3.847h5.349v.474h-18.974l-1.854-12.066a1.831,1.831,0,0,1,.145-1.034l3.1-4.285-3.217-3.2c-.276-.3-.1-1.2-.041-1.458a8.869,8.869,0,0,1,.856-2.216,6.086,6.086,0,0,1,1.42-1.817,4.5,4.5,0,0,1,2.935-1.048h14.316a4.508,4.508,0,0,1,2.935,1.048,6.128,6.128,0,0,1,1.42,1.817,8.974,8.974,0,0,1,.856,2.216c.067.26.235,1.154-.041,1.458l-3.217,3.2,3.1,4.285a1.854,1.854,0,0,1,.145,1.034l-.1.654a1.207,1.207,0,0,0-.527-.129H1141.5a1.231,1.231,0,0,0-1.231,1.231v1.789a3.5,3.5,0,0,1-1.031-1.4h-1.644l-.385,4.963h-1.422l.4-4.97h-8.765l.569,7.385h5.7v.841A1.23,1.23,0,0,0,1134.919,2213.819Zm-4.128-14.325.092-.057a2.32,2.32,0,0,0-.484-.159,3.145,3.145,0,0,0-.705-.076,3,3,0,0,0-.974.15c-.049.019-.107.039-.156.059a1.577,1.577,0,0,0-.233.117,1.086,1.086,0,0,0-.2.144.683.683,0,0,0-.1.107.388.388,0,0,0-.091.24c0,.211.219.436.589.6a2.437,2.437,0,0,0,.346.123,3.145,3.145,0,0,0,.361.073,3.411,3.411,0,0,0,.9,0l.005,0a.929.929,0,0,1-.033-.246A1.3,1.3,0,0,1,1130.791,2199.494Zm-3.19-.927h0a1.269,1.269,0,0,0,.411.308,3.417,3.417,0,0,1,1.654-.388,3.8,3.8,0,0,1,1.108.157.506.506,0,0,0,.191-.348v-.084l-.006-.021v-.013l-.009-.02-.006-.015-.011-.021-.007-.014-.014-.021-.009-.012-.021-.027v-.006l-.028-.033-.012-.012-.02-.021-.015-.013-.02-.019-.017-.015-.021-.017-.018-.015-.022-.018-.02-.015-.024-.017-.02-.014-.031-.02a2.7,2.7,0,0,0-1.375-.335,2.657,2.657,0,0,0-1.4.349l-.025.016-.032.022-.031.022-.022.017-.05.043a.484.484,0,0,0-.191.348A.423.423,0,0,0,1127.6,2198.567Zm6.458,2.395a1.049,1.049,0,0,1-.151-.534,1,1,0,0,1,.055-.33,2.658,2.658,0,0,0-1.4-.35,3.149,3.149,0,0,0-.442.028,2.523,2.523,0,0,0-.35.068,2.34,2.34,0,0,0-.339.113h0c-.383.161-.614.393-.622.6a.192.192,0,0,0,.007.065.573.573,0,0,0,.2.3l.05.039a1.642,1.642,0,0,0,.3.177,2.693,2.693,0,0,0,.624.187h1.138A2.172,2.172,0,0,0,1134.058,2200.962Zm-.539-2a2.994,2.994,0,0,0,1.13-.225,1.747,1.747,0,0,0,.315-.179.781.781,0,0,0,.239-.265.375.375,0,0,0,.038-.154.452.452,0,0,0-.139-.3,1.194,1.194,0,0,0-.287-.214,1.926,1.926,0,0,0-.32-.145,3.025,3.025,0,0,0-1-.159,2.111,2.111,0,0,0-1.677.607v.006l-.02.033v.011l-.013.028v.012a.044.044,0,0,0-.01.027v.014a.059.059,0,0,0,0,.029v.012a.211.211,0,0,0,0,.039C1131.777,2198.529,1132.522,2198.955,1133.519,2198.958Zm4.606,1.47c0-.391-.747-.819-1.748-.819a2.517,2.517,0,0,0-1.5.417.624.624,0,0,0-.246.32.3.3,0,0,0-.011.08.363.363,0,0,0,.046.17.849.849,0,0,0,.3.3l.063.038.068.036.005-.01a2.831,2.831,0,0,0,1.32.266,2.513,2.513,0,0,0,1.513-.427l.038-.033.035-.033.029-.032.026-.03v-.006l.021-.028v-.009l.016-.027v-.011l.012-.025v-.014l.009-.021v-.017a.026.026,0,0,0,0-.02v-.064Zm-2.138-2.379v.091a1.081,1.081,0,0,1-.139.516,3.094,3.094,0,0,0,1,.159c.076,0,.15-.007.223-.007l0,0a1.009,1.009,0,0,1,.011-.149v-.1a.664.664,0,0,0,.012-.081v-.016c.005-.024.011-.047.017-.071v-.015a.54.54,0,0,1,.024-.075l.009-.022a.734.734,0,0,1,.031-.071l.01-.02c.01-.018.018-.037.03-.055l.015-.026.041-.062.02-.028.035-.044.029-.037.038-.044.028-.03.053-.053a2.114,2.114,0,0,1,.589-.385,2.875,2.875,0,0,0-1.2-.246,2.9,2.9,0,0,0-1.156.221,1.245,1.245,0,0,1,.239.408.735.735,0,0,1,.023.076v.012a.63.63,0,0,1,.015.069c0,.011-.006.016,0,.033A.131.131,0,0,1,1135.987,2198.049Zm5.3,2.307c-.089-.022-.182-.043-.279-.058l-.09-.012h-.021l-.073-.009h-.8l-.044.006-.037.006-.043.008-.037.007-.042.009-.037.007-.039.01-.037.009-.037.01-.036.01-.034.01-.037.011-.028.01c-.052.017-.1.035-.149.054l-.016.006-.043.018-.017.008-.041.02-.017.009-.038.02-.016.008-.037.021-.014.007-.037.022-.012.008-.037.023-.009.006-.036.026h-.006l-.037.028a.526.526,0,0,0-.231.384.424.424,0,0,0,.123.277h3.244a.441.441,0,0,0,.123-.259C1142.235,2200.8,1141.859,2200.506,1141.284,2200.356Zm-1.767-2.535h-.044c-.055,0-.12.006-.179.006a3.047,3.047,0,0,0-.353.043,2.382,2.382,0,0,0-.349.085c-.5.159-.824.431-.824.685v.023a.5.5,0,0,0,.18.32,1.4,1.4,0,0,0,.37.237,2.9,2.9,0,0,0,1.2.246h.158l.123-.008h0l.117-.012h.02l.123-.019h.008l.123-.022.123-.028c.581-.149.95-.447.95-.72v0C1141.265,2198.268,1140.517,2197.835,1139.518,2197.821Zm-2.812-9.025a5.129,5.129,0,0,1,.581,1.231,9.521,9.521,0,0,1,.384,1.747h2.29a2.979,2.979,0,0,1,1.09-.79,4.7,4.7,0,0,0-.214-.438c-.693-1.294-1.453-1.752-1.893-1.752Zm-8.994,1.408a8.668,8.668,0,0,0-.351,1.57h8.865a8.917,8.917,0,0,0-.351-1.571,3.662,3.662,0,0,0-.772-1.41h-6.627a3.629,3.629,0,0,0-.772,1.41Zm-4.974.339c-.079.148-.149.3-.216.438a2.983,2.983,0,0,1,1.09.79h2.29a9.312,9.312,0,0,1,.379-1.747,5.078,5.078,0,0,1,.581-1.231h-2.233c-.44,0-1.2.459-1.894,1.752Zm1.267,5.564h15.568l2.321-2.316h-20.216Zm2.781,2.216a1,1,0,0,1,.095-.427c-.012-.015-.025-.03-.038-.043l-.022-.022a2.375,2.375,0,0,0-1.573-.485c-1,0-1.748.432-1.748.819a.47.47,0,0,0,.164.32.576.576,0,0,0,.052.047l.01.009.042.059h.006l.063.045.011.006.06.036.012.007.075.04H1124l.071.033.019.008c.052.023.115.046.175.066l.022.008.085.026h.011l.1.026h.025l.085.018h.021l.107.019h.023l.089.012h.023l.107.011h.268a2.432,2.432,0,0,0,1.559-.47l.014-.009A.832.832,0,0,1,1126.786,2198.323Zm-4.182,2.563.03.064.05.028.053.027a2.868,2.868,0,0,0,1.225.246,3.331,3.331,0,0,0,.755-.087,1.3,1.3,0,0,1-.107-.139l-.041-.065v-.009l-.034-.066a.826.826,0,0,1-.052-.123l-.007-.021a.15.15,0,0,1-.012-.044.272.272,0,0,0-.011-.044c-.007-.012,0-.021-.007-.039a.124.124,0,0,1-.009-.056v-.123a1.1,1.1,0,0,1,.289-.731,3.173,3.173,0,0,0-.755-.087h-.415l-.051.006h-.037l-.049.008-.037.006-.048.009-.036.008-.047.011-.035.009-.046.012-.032.009-.046.012-.029.008-.044.014-.028.01-.044.016-.026.01-.044.018-.022.01-.047.02-.019.009-.049.023-.012.006c-.314.156-.5.362-.5.556a.385.385,0,0,0,.071.214l.021.03.023.028v.006l.027.028v.006l.028.028h.006l.032.028h.006l.036.028.039.028.043.029Zm3.951,10.858-.573-7.375h-1.638a3.5,3.5,0,0,1-1.724,1.863l.616,4.037a3.486,3.486,0,0,1,1.933,1.478Zm.3-10.567a3.115,3.115,0,0,0,.974-.15c-.036-.025-.069-.051-.1-.076a1.526,1.526,0,0,1-.343-.369l-.028-.047-.01-.016-.021-.042-.012-.022-.017-.038-.012-.028-.014-.037-.011-.031-.011-.034-.009-.035c-.007-.011,0-.02-.007-.032a.069.069,0,0,1-.007-.038v-.17a1.025,1.025,0,0,1,.1-.427,3.358,3.358,0,0,0-1.207.058,2.251,2.251,0,0,0-.369.123,1.564,1.564,0,0,0-.336.184.46.46,0,0,0,0,.855l.068.046.054.033.016.01.074.04c.041.021.08.038.123.057a2.646,2.646,0,0,0,.369.123l0-.01A3.228,3.228,0,0,0,1126.856,2201.177Zm-5.836,12.783c0,.865-1.013,1.517-2.368,1.517a3.624,3.624,0,0,1-1.059-.15,3.122,3.122,0,0,1-1.748.474c-1.349,0-2.368-.654-2.368-1.516,0-.7.666-1.256,1.628-1.447a1.133,1.133,0,0,1-.255-.706c0-.863,1.017-1.516,2.368-1.516s2.368.654,2.368,1.516a1.087,1.087,0,0,1-.079.405h0C1120.41,2212.75,1121.015,2213.3,1121.02,2213.961Zm-4.367.84a1.173,1.173,0,0,1-.369-.841,1.011,1.011,0,0,1,.036-.272,2.681,2.681,0,0,0-.475-.038c-.894,0-1.487.383-1.487.635s.593.635,1.487.635A2.772,2.772,0,0,0,1116.653,2214.8Zm.5-2.026a3.214,3.214,0,0,1,1.309-.32c.161-.106.246-.224.246-.32,0-.252-.593-.635-1.487-.635s-1.487.382-1.487.635h0C1115.727,2212.381,1116.29,2212.751,1117.152,2212.774Zm2.984,1.185c0-.247-.569-.617-1.424-.634h-.06a2.694,2.694,0,0,0-.815.123,1.609,1.609,0,0,0-.427.2h-.006c-.149.1-.233.218-.233.311a.189.189,0,0,0,.018.082.48.48,0,0,1,.123.162,1.4,1.4,0,0,0,.437.246,2.518,2.518,0,0,0,.427.107,2.936,2.936,0,0,0,.477.038l.006,0C1119.549,2214.593,1120.136,2214.207,1120.136,2213.959Zm23.388-9.976H1141.5v6.581h-6.581v2.024h6.581v6.581h2.025v-6.581h6.581v-2.024h-6.581Z" fill="#fff"/>
  </g>
</svg>
