<svg xmlns="http://www.w3.org/2000/svg" viewBox="0 0 28.93 26"><path class="cls-1" d="M19,12.44a.54.54,0,0,1-.53.54H9.66a.53.53,0,0,1-.53-.53.52.52,0,0,1,.53-.54h8.78A.53.53,0,0,1,19,12.44ZM9.66,6.36h8.78a.54.54,0,0,0,0-1.08H9.66a.54.54,0,0,0,0,1.08Zm8.78,2.23H9.66a.54.54,0,0,0,0,1.08h8.78A.54.54,0,0,0,19,9.12.55.55,0,0,0,18.44,8.59ZM28.93,22.75h0c-2.32,0-3.25.95-3.25,3.25,0-2.09-.79-3.05-2.65-3.22a3.1,3.1,0,0,1-3.13,1.94H3.69v-1a2,2,0,0,0,2.1-1.74V4.5C4.6,5.07,4.06,6.22,4.06,8.13,4.06,5.25,2.89,4.06,0,4.06,2.88,4.06,4.06,2.89,4.06,0h0c0,1.92.54,3.07,1.75,3.64A3.07,3.07,0,0,1,9,1H25.35a2.81,2.81,0,0,1,1.45.53A3.4,3.4,0,0,1,28,4.42v.52H23.25v17a3.13,3.13,0,0,1-.2.8c1.85-.17,2.63-1.14,2.63-3.22C25.68,21.81,26.62,22.75,28.93,22.75ZM23.25,3.89h3.49A2.15,2.15,0,0,0,26,2.27a1.39,1.39,0,0,0-.7-.28,2,2,0,0,0-2,1.74ZM22,3.73A2.53,2.53,0,0,1,22.75,2H9.13A2,2,0,0,0,7,3.73V4a7.4,7.4,0,0,0,1.09.07A7.34,7.34,0,0,0,7,4.14V21.93a2.52,2.52,0,0,1-.75,1.75H19.9A2,2,0,0,0,22,21.93V3.74ZM18.46,15.1H9.66a.54.54,0,0,0-.55.53.54.54,0,0,0,.53.55h8.8a.54.54,0,0,0,.55-.53A.55.55,0,0,0,18.46,15.1Zm0,3.31H9.66a.55.55,0,0,0-.55.54.54.54,0,0,0,.53.54h8.8A.52.52,0,0,0,19,19,.54.54,0,0,0,18.45,18.41Z"/></svg>