<svg xmlns="http://www.w3.org/2000/svg" width="29.748" height="26" viewBox="0 0 29.748 26">
  <path id="reward" d="M66.107,430.559V431.7h1.055v-1.135a1.129,1.129,0,1,0-1.055,0Zm13.317,6.42a1.019,1.019,0,0,0,.449-.807c0-.7-.826-1.231-1.923-1.231a1.9,1.9,0,0,0-1.87.932,3.044,3.044,0,0,0-.608-.058c-1.1,0-1.923.529-1.923,1.232s.826,1.231,1.923,1.231a3.033,3.033,0,0,0,.8-.1,1.861,1.861,0,0,0,1.886.977c1.1,0,1.923-.53,1.923-1.232A1.1,1.1,0,0,0,79.424,436.979Zm-2.765.148a1.269,1.269,0,0,0-.2.193,1.9,1.9,0,0,1-.985.241c-.726,0-1.208-.311-1.208-.516s.482-.516,1.208-.516a2.163,2.163,0,0,1,.682.1,1.347,1.347,0,0,0,.512.472l-.01.022Zm.087-.955a.154.154,0,0,1,.012-.06,1.362,1.362,0,0,1,1.2-.456c.726,0,1.208.311,1.208.516s-.482.516-1.208.516a2.193,2.193,0,0,1-.682-.1c-.333-.109-.529-.282-.529-.413Zm1.413,2.263c-.726,0-1.208-.311-1.208-.516a.177.177,0,0,1,.023-.082,1.4,1.4,0,0,0,.2-.193,1.88,1.88,0,0,1,.985-.241c.726,0,1.208.311,1.208.516s-.485.515-1.211.515Zm-21.584-4.65a.874.874,0,0,0,.064-.329c0-.7-.826-1.231-1.923-1.231s-1.923.53-1.923,1.231a.921.921,0,0,0,.207.573c-.781.155-1.322.608-1.322,1.175,0,.7.827,1.231,1.923,1.231a2.531,2.531,0,0,0,1.42-.385,2.967,2.967,0,0,0,.86.122c1.1,0,1.923-.53,1.923-1.232C57.8,434.4,57.308,433.956,56.574,433.785ZM53.6,435.719c-.726,0-1.208-.311-1.208-.516s.482-.516,1.208-.516a2.221,2.221,0,0,1,.386.031.866.866,0,0,0-.029.221.956.956,0,0,0,.3.683A2.222,2.222,0,0,1,53.6,435.719Zm-.091-2.263c0-.206.482-.516,1.208-.516s1.208.311,1.208.516c0,.078-.069.174-.2.26a2.622,2.622,0,0,0-1.063.26c-.7-.019-1.157-.319-1.157-.52Zm2.372,2a2.4,2.4,0,0,1-.387-.031,1.989,1.989,0,0,1-.347-.087,1.148,1.148,0,0,1-.355-.2.4.4,0,0,0-.1-.132.159.159,0,0,1-.015-.066c0-.076.068-.168.189-.253h.005a1.323,1.323,0,0,1,.347-.163,2.194,2.194,0,0,1,.662-.1h.049c.695.014,1.157.314,1.157.515s-.477.514-1.2.514Zm-1.426-11.537.5-1.583,1.583-.5-1.583-.5-.5-1.583-.5,1.583-1.583.5,1.583.5Zm23.637-.246.24,2.084,1.011-1.84,2.084-.24-1.84-1.011-.24-2.084-1.011,1.84-2.084.24Zm-1.5,1.737a1.494,1.494,0,0,0-.118-.84l-2.518-3.48,2.613-2.6c.224-.247.087-.973.033-1.184a7.247,7.247,0,0,0-.695-1.8,4.969,4.969,0,0,0-1.153-1.476,3.663,3.663,0,0,0-2.384-.851H60.742a3.662,3.662,0,0,0-2.384.851,4.955,4.955,0,0,0-1.153,1.476,7.247,7.247,0,0,0-.695,1.8c-.051.211-.191.938.033,1.184l2.613,2.6-2.518,3.48a1.494,1.494,0,0,0-.118.84l1.506,9.8H75.093Zm-2.344-2.9c0,.222-.3.464-.772.585h0l-.1.023h0l-.1.018h-.006l-.1.015h-.016l-.095.01H73.06l-.1.006h-.128a2.354,2.354,0,0,1-.978-.2,1.167,1.167,0,0,1-.3-.192.41.41,0,0,1-.146-.26v-.019c0-.206.26-.427.669-.556a2.137,2.137,0,0,1,.283-.069,2.435,2.435,0,0,1,.287-.035c.048,0,.1-.005.145-.005h.036c.812.011,1.419.363,1.419.676Zm-3.409.122c-.059,0-.119.006-.181.006a2.5,2.5,0,0,1-.811-.129.86.86,0,0,0,.113-.419v-.074a.094.094,0,0,0-.005-.043c-.005-.014,0-.018,0-.027a.482.482,0,0,0-.012-.056v-.01a.5.5,0,0,0-.019-.062,1.009,1.009,0,0,0-.194-.331,2.372,2.372,0,0,1,.939-.18,2.339,2.339,0,0,1,.978.2,1.733,1.733,0,0,0-.478.313h0l-.043.043-.023.024-.031.036-.024.03-.028.036-.016.023-.033.05-.012.021c-.009.015-.016.03-.024.045l-.008.016c-.01.019-.017.038-.025.058l-.007.018a.5.5,0,0,0-.02.061v.012c-.005.019-.01.038-.014.057v.013c0,.021-.007.043-.01.066v.084a.8.8,0,0,0-.009.121Zm-5.632,1.628a2.753,2.753,0,0,1-.727,0,2.58,2.58,0,0,1-.293-.059,2.006,2.006,0,0,1-.281-.1c-.3-.13-.478-.313-.478-.484a.325.325,0,0,1,.074-.195.592.592,0,0,1,.081-.087.913.913,0,0,1,.159-.117,1.43,1.43,0,0,1,.189-.095c.04-.016.087-.033.127-.048a2.473,2.473,0,0,1,.791-.122,2.6,2.6,0,0,1,.573.062,1.92,1.92,0,0,1,.393.129l-.075.046a1.06,1.06,0,0,0-.556.868.825.825,0,0,0,.027.2Zm-2.058-1.823a.348.348,0,0,1-.092-.218.4.4,0,0,1,.155-.283l.041-.035.018-.014.025-.018.026-.018.02-.013a2.162,2.162,0,0,1,1.135-.284,2.194,2.194,0,0,1,1.117.272l.025.016.016.011.02.014.016.012.018.014.015.012.017.014.014.012.016.015.012.011.016.017.01.01.023.027v.005l.017.022.007.01.011.017.006.011.009.017.005.012.007.016v.011l.005.017v.068a.408.408,0,0,1-.155.283,3.071,3.071,0,0,0-.9-.128,2.78,2.78,0,0,0-1.343.315,1.03,1.03,0,0,1-.334-.25Zm3.112,1.129a1.929,1.929,0,0,1,.275-.092,2.276,2.276,0,0,1,.284-.055,2.479,2.479,0,0,1,.359-.023,2.166,2.166,0,0,1,1.137.284.825.825,0,0,0-.045.268.861.861,0,0,0,.123.434,1.753,1.753,0,0,1-.752.3h-.924a2.146,2.146,0,0,1-.507-.152,1.317,1.317,0,0,1-.243-.144l-.041-.032a.467.467,0,0,1-.164-.244.221.221,0,0,1-.006-.053c.006-.171.194-.359.505-.49Zm1.7-.812c-.813,0-1.42-.347-1.42-.665a.2.2,0,0,1,0-.032v-.01a.052.052,0,0,1,0-.023v-.011a.035.035,0,0,1,.008-.022v-.01l.011-.023,0-.009.016-.027v-.005a1.717,1.717,0,0,1,1.362-.493,2.455,2.455,0,0,1,.811.129,1.6,1.6,0,0,1,.26.118.948.948,0,0,1,.233.174.365.365,0,0,1,.113.241.286.286,0,0,1-.031.125.623.623,0,0,1-.194.215,1.375,1.375,0,0,1-.256.145,2.4,2.4,0,0,1-.919.183Zm4.4-8.255c.358,0,.975.372,1.538,1.423q.1.18.174.356a2.423,2.423,0,0,0-.885.642h-1.86a7.686,7.686,0,0,0-.312-1.419,4.134,4.134,0,0,0-.472-1Zm-9.129,1.145a2.961,2.961,0,0,1,.627-1.145h5.383a2.972,2.972,0,0,1,.627,1.145,7.136,7.136,0,0,1,.285,1.276h-7.2a7.109,7.109,0,0,1,.285-1.275Zm-4.035.278c.563-1.05,1.181-1.423,1.538-1.423h1.814a4.134,4.134,0,0,0-.472,1,7.624,7.624,0,0,0-.308,1.419h-1.86a2.43,2.43,0,0,0-.885-.642c.054-.116.111-.236.175-.356Zm-.859,2.636h16.42l-1.885,1.881H60.228Zm4.152,3.815a1.97,1.97,0,0,1-1.266.382h-.122l-.081,0h-.015l-.087-.009H60.9l-.072-.01h-.019l-.087-.015h-.017l-.069-.015-.02,0-.079-.021h-.009l-.069-.021-.018-.006c-.049-.017-.1-.035-.142-.054l-.015-.006-.058-.027h-.007l-.061-.032-.01-.006-.049-.029-.009-.005-.051-.036h-.005L60,422.415l-.008-.007c-.015-.012-.029-.025-.042-.038a.382.382,0,0,1-.133-.26c0-.314.608-.665,1.42-.665a1.93,1.93,0,0,1,1.278.394h0l.018.018a.38.38,0,0,1,.031.035.838.838,0,0,0-.077.347.785.785,0,0,0,.014.127Zm-3.4,1.948-.037-.023h0l-.035-.023h0l-.032-.023h0l-.029-.023h-.005l-.026-.023-.005,0-.023-.023,0-.005-.022-.023v-.005l-.019-.023h0l-.017-.024h0a.315.315,0,0,1-.058-.174c0-.158.154-.325.409-.452l.01-.005.04-.019.015-.007.038-.016.018-.008.036-.014.021-.008.036-.013.023-.008.036-.011.024-.007.037-.01.026-.007.037-.01.028-.007.038-.009.029-.006.039-.007.03-.005.04-.006.03,0,.041-.005H60.2a2.56,2.56,0,0,1,.613.071.9.9,0,0,0-.235.594v.1a.117.117,0,0,0,.007.045c.007.015,0,.022.006.032a.153.153,0,0,1,.009.036c0,.012.006.024.01.036l.006.017a.8.8,0,0,0,.042.1h0l.028.054v.007l.033.053a1.186,1.186,0,0,0,.087.113,2.644,2.644,0,0,1-.613.071,2.336,2.336,0,0,1-.995-.2h0l-.043-.022h0l-.041-.023Zm2.084,8.821a2.834,2.834,0,0,0-1.57-1.2l-.5-3.279a2.844,2.844,0,0,0,1.4-1.513h1.33l.465,5.99Zm.767-8.638a2.171,2.171,0,0,1-.3-.1c-.035-.015-.067-.029-.1-.046h0l-.06-.032-.013-.008-.044-.027-.055-.037a.374.374,0,0,1,0-.695,1.32,1.32,0,0,1,.273-.149,1.953,1.953,0,0,1,.3-.1,2.554,2.554,0,0,1,.613-.071,2.6,2.6,0,0,1,.367.024.839.839,0,0,0-.078.347v.138a.062.062,0,0,0,.006.031c.006.01,0,.017.006.026l.007.028.009.028.009.025.011.03.01.023.014.031.01.018.017.034.008.013.023.038h0a1.249,1.249,0,0,0,.279.3c.026.021.053.042.082.062a2.521,2.521,0,0,1-.791.122,2.628,2.628,0,0,1-.605-.061Zm7.7,8.638H63.462L63,427.144h7.119Zm-.4-8.755h0l-.055-.029h0l-.051-.031a.7.7,0,0,1-.245-.242.3.3,0,0,1-.037-.138.231.231,0,0,1,.009-.065.515.515,0,0,1,.2-.26,2.052,2.052,0,0,1,1.215-.339c.813,0,1.42.347,1.42.665a.165.165,0,0,1,0,.029V424a.021.021,0,0,1,0,.016c0,.005,0,.01,0,.014l-.007.017,0,.011-.01.02,0,.009-.013.022,0,.007-.017.023v.005l-.021.024h0l-.024.026h0l-.028.027h0l-.031.027h0a2.035,2.035,0,0,1-1.229.347A2.3,2.3,0,0,1,69.245,424.379Zm4.254,7.553a2.832,2.832,0,0,0-1.57,1.2H70.8l.465-5.99H72.6a2.841,2.841,0,0,0,1.4,1.513Zm1.445-7.255H72.3a.348.348,0,0,1-.1-.225.433.433,0,0,1,.188-.312h0l.03-.023h.005l.029-.021.007-.005.03-.019.01-.006.03-.018.011-.006.03-.017.013-.007.031-.016.014-.007.033-.016.014-.006.035-.015.013-.005c.038-.016.079-.03.121-.044l.023-.008.03-.009.028-.008.029-.008.03-.008.03-.007.032-.008.03-.006.034-.007.03-.006.035-.006.03-.005.036-.005h.03l.037,0h.5l.056,0h.023l.059.007h.017l.073.01h0c.079.012.155.029.227.047h0c.467.122.772.363.772.585a.359.359,0,0,1-.1.211Z" transform="translate(-51.677 -413.167)"/>
</svg>
